<svg width="493" height="493" viewBox="0 0 493 493" fill="none" xmlns="http://www.w3.org/2000/svg">
<path d="M246.48 0C382.607 0.000255649 492.96 110.353 492.96 246.48C492.96 350.214 428.877 438.98 338.141 475.353C321.98 457.563 300.31 433.044 278.521 406.793C276.056 403.822 273.596 400.837 271.149 397.847C302.599 399.494 332.187 385.994 353.172 359.251L353.173 359.252C376.333 329.95 371.466 293.442 356.592 266.213C345.34 245.615 326.869 227.06 304.453 216.32C308.082 201.741 309.528 186.539 307.882 171.802L307.842 171.448L307.791 171.097L307.658 170.203C301.803 132.385 269.99 97.2349 230.324 91.5293L229.909 91.4697L229.493 91.4258C201.967 88.5064 177.525 99.5523 159.7 116.049C142.013 132.418 129.618 155.143 125.632 178.872C118.111 223.637 135.514 268.777 152.239 304.306C152.254 304.34 152.269 304.376 152.284 304.413C152.46 304.829 152.702 305.392 153.006 306.078C153.612 307.445 154.479 309.327 155.571 311.513C157.532 315.433 160.467 320.827 164.195 326.085C182.14 358.188 213.722 399.179 243.895 435.532C260.034 454.978 276.095 473.475 290.017 489.126C275.885 491.645 261.336 492.96 246.48 492.96C110.353 492.96 0.000255711 382.607 0 246.48C0 110.353 110.353 0 246.48 0ZM286.35 257.576C298.782 263.912 310.029 274.842 317.1 287.786C326.725 305.407 326.009 321.049 317.869 331.348L317.838 331.386L317.808 331.425C303.988 349.067 285.642 355.535 266.46 352.091C250.855 349.289 232.861 339.493 215.94 320.193C237.419 307.283 260.012 291.22 275.811 271.977L276.083 271.646L276.343 271.304C279.504 267.139 282.992 262.502 286.35 257.576ZM190.266 149.076C200.487 139.617 212.374 135.01 224.297 136.13C242.476 138.961 260.142 157.179 263.193 177.143C264.649 190.892 261.637 207.309 254.768 223.08C251.656 229.068 246.882 235.674 240.774 243.729C229.165 257.74 211.161 270.627 191.621 282.29C175.854 248.271 165.124 215.413 170.01 186.328C172.323 172.557 179.778 158.782 190.266 149.076Z" fill="url(#paint0_linear_63_71)"/>
<defs>
<linearGradient id="paint0_linear_63_71" x1="-17.92" y1="352.48" x2="498.95" y2="145.27" gradientUnits="userSpaceOnUse">
<stop stop-color="#FF99C3"/>
<stop offset="1" stop-color="#F95319"/>
</linearGradient>
</defs>
</svg>
